<svg width="529" height="90" viewBox="0 0 529 90" fill="none" xmlns="http://www.w3.org/2000/svg"><path d="M328.228 0v89.427" stroke="#22356B" stroke-width=".891" stroke-miterlimit="10"/><path d="M367.969 23.752V10.738h-3.477v4.886h-4.907v-4.886h-3.477v13.014h3.477V18.78h4.907v4.97h3.477zM374.865 13.256c-3.371 0-5.355 1.941-5.355 5.397 0 3.37 1.984 5.29 5.355 5.29 3.392 0 5.376-1.92 5.376-5.29 0-3.456-1.984-5.397-5.376-5.397zm0 7.978c-1.302 0-2.006-.682-2.006-2.581 0-1.984.726-2.688 2.006-2.688 1.301 0 2.026.704 2.026 2.688 0 1.899-.725 2.581-2.026 2.581zM384.996 13.448h-3.413v13.589h3.413v-4.416c.832.81 1.472 1.323 3.051 1.323 2.176 0 4.096-1.579 4.096-5.44 0-3.691-1.344-5.248-3.862-5.248-1.258 0-2.261.49-3.285 1.322v-1.13zm0 3.797c.576-.747 1.216-1.152 2.048-1.152 1.109 0 1.749.683 1.749 2.41 0 1.878-.746 2.646-1.834 2.646-.939 0-1.43-.384-1.963-1.088v-2.816zM404.289 13.448h-3.819l-3.349 3.584v-7.04h-3.413v13.76h3.413V21.49l1.024-1.13 2.411 3.392h3.818v-.235l-3.989-5.675 3.904-4.16v-.234zM405.206 10.44c0 1.173.917 1.749 1.92 1.749 1.002 0 1.92-.576 1.92-1.75 0-1.151-.918-1.727-1.92-1.727-1.003 0-1.92.576-1.92 1.728zm3.626 13.312V13.448h-3.413v10.304h3.413zM414.433 13.448h-3.413v10.304h3.413v-6.144c.576-.726 1.238-1.174 2.027-1.174.981 0 1.195.47 1.195 1.728v5.59h3.413v-6.55c0-2.773-1.045-3.946-3.243-3.946-1.258 0-2.304.554-3.392 1.536v-1.344zM431.172 14.045c-1.877-.619-3.434-.81-4.65-.81-2.368 0-3.691 1.343-3.691 3.52 0 1.45.896 2.431 2.816 3.029 1.557.49 2.304.576 2.304 1.109 0 .341-.277.512-.853.512-.939 0-2.518-.47-3.84-.96l-.811 2.283c1.323.661 2.773 1.216 4.608 1.216 2.816 0 4.309-1.195 4.309-3.414 0-1.77-.768-2.432-2.773-2.986-1.664-.47-2.56-.555-2.56-1.195 0-.384.277-.576.725-.576.683 0 2.07.213 3.584.619l.832-2.347zM437.525 10.738v13.014h5.226c3.734 0 5.824-1.344 5.824-3.712 0-1.579-.938-2.688-2.816-3.158 1.216-.405 1.963-1.258 1.963-2.496 0-2.325-1.813-3.648-5.035-3.648h-5.162zm3.477 2.88h1.685c1.11 0 1.75.384 1.75 1.088 0 .662-.491 1.024-1.344 1.024h-2.091v-2.112zm0 4.8h2.091c1.194 0 1.877.427 1.877 1.174 0 .81-.768 1.28-2.112 1.28h-1.856v-2.454zM456.57 23.752h3.414V13.448h-3.414v6.208c-.576.725-1.258 1.194-2.048 1.194-.96 0-1.194-.49-1.194-1.749v-5.653h-3.414v6.528c0 2.794 1.174 3.968 3.35 3.968 1.258 0 2.005-.555 3.306-1.408v1.216zM470.297 14.045c-1.877-.619-3.434-.81-4.65-.81-2.368 0-3.691 1.343-3.691 3.52 0 1.45.896 2.431 2.816 3.029 1.557.49 2.304.576 2.304 1.109 0 .341-.277.512-.853.512-.939 0-2.518-.47-3.84-.96l-.811 2.283c1.323.661 2.773 1.216 4.608 1.216 2.816 0 4.309-1.195 4.309-3.414 0-1.77-.768-2.432-2.773-2.986-1.664-.47-2.56-.555-2.56-1.195 0-.384.277-.576.725-.576.683 0 2.07.213 3.584.619l.832-2.347zM471.789 10.44c0 1.173.917 1.749 1.92 1.749s1.92-.576 1.92-1.75c0-1.151-.917-1.727-1.92-1.727s-1.92.576-1.92 1.728zm3.627 13.312V13.448h-3.414v10.304h3.414zM481.017 13.448h-3.414v10.304h3.414v-6.144c.576-.726 1.237-1.174 2.026-1.174.982 0 1.195.47 1.195 1.728v5.59h3.413v-6.55c0-2.773-1.045-3.946-3.242-3.946-1.259 0-2.304.554-3.392 1.536v-1.344zM498.054 20.36c-1.28.682-2.261.938-3.648.938-1.152 0-1.834-.554-2.069-1.706h6.656c.064-.534.085-.96.085-1.387-.021-3.264-1.898-4.95-4.8-4.95-3.221 0-5.226 1.835-5.226 5.42 0 3.498 2.048 5.269 5.205 5.269 1.728 0 3.2-.491 4.757-1.664l-.96-1.92zm-5.738-2.795c.192-1.323.832-1.941 1.962-1.941 1.11 0 1.792.597 1.878 1.941h-3.84zM508.631 14.045c-1.878-.619-3.435-.81-4.651-.81-2.368 0-3.691 1.343-3.691 3.52 0 1.45.896 2.431 2.816 3.029 1.558.49 2.304.576 2.304 1.109 0 .341-.277.512-.853.512-.939 0-2.517-.47-3.84-.96l-.811 2.283c1.323.661 2.774 1.216 4.608 1.216 2.816 0 4.31-1.195 4.31-3.414 0-1.77-.768-2.432-2.774-2.986-1.664-.47-2.56-.555-2.56-1.195 0-.384.278-.576.726-.576.682 0 2.069.213 3.584.619l.832-2.347zM518.152 14.045c-1.878-.619-3.435-.81-4.651-.81-2.368 0-3.691 1.343-3.691 3.52 0 1.45.896 2.431 2.816 3.029 1.558.49 2.304.576 2.304 1.109 0 .341-.277.512-.853.512-.939 0-2.517-.47-3.84-.96l-.811 2.283c1.323.661 2.774 1.216 4.608 1.216 2.816 0 4.31-1.195 4.31-3.414 0-1.77-.768-2.432-2.774-2.986-1.664-.47-2.56-.555-2.56-1.195 0-.384.278-.576.726-.576.682 0 2.069.213 3.584.619l.832-2.347zM360.844 39.256c-3.371 0-5.355 1.941-5.355 5.397 0 3.37 1.984 5.29 5.355 5.29 3.392 0 5.376-1.92 5.376-5.29 0-3.456-1.984-5.397-5.376-5.397zm0 7.978c-1.301 0-2.005-.682-2.005-2.581 0-1.984.725-2.688 2.005-2.688 1.301 0 2.027.704 2.027 2.688 0 1.899-.726 2.581-2.027 2.581zM374.557 35.416a10.259 10.259 0 0 0-2.219-.235c-2.837 0-4.139 1.195-4.139 3.947v.32h-1.344v2.794h1.344v7.51h3.414v-7.51h2.624v-2.794h-2.624v-.32c0-.875.298-1.43 1.365-1.43.469 0 .853.022 1.344.043l.235-2.325zM391.886 49.752V36.738h-3.477v4.886h-4.907v-4.886h-3.477v13.014h3.477V44.78h4.907v4.97h3.477zM402.429 46.36c-1.28.682-2.261.938-3.648.938-1.152 0-1.834-.554-2.069-1.706h6.656c.064-.534.085-.96.085-1.387-.021-3.264-1.898-4.95-4.8-4.95-3.221 0-5.226 1.835-5.226 5.42 0 3.498 2.048 5.269 5.205 5.269 1.728 0 3.2-.491 4.757-1.664l-.96-1.92zm-5.738-2.795c.192-1.323.832-1.941 1.962-1.941 1.11 0 1.792.597 1.878 1.941h-3.84zM405.918 42.328c1.472-.32 2.581-.448 3.349-.448 1.216 0 1.536.469 1.536 1.621h-2.048c-2.901 0-4.352 1.003-4.352 3.2 0 2.432 1.216 3.243 3.392 3.243 1.238 0 2.176-.555 3.008-1.408v1.216h3.328V43.5c0-2.987-1.216-4.245-4.224-4.245-1.066 0-2.112.149-4.501.768l.512 2.304zm4.885 2.986v1.302c-.512.533-1.088.896-1.898.896-.854 0-1.387-.47-1.387-1.216 0-.875.597-.982 1.685-.982h1.6zM419.371 49.752v-13.76h-3.413v13.76h3.413zM428.073 47.149c-.576.043-.896.043-1.387.043-1.002 0-1.28-.448-1.28-1.366v-3.584h2.518v-2.794h-2.518v-2.283h-3.413v2.283h-1.451v2.794h1.451v3.734c0 2.816 1.003 3.925 3.413 3.925 1.046 0 2.24-.277 2.987-.704l-.32-2.048zM433.058 35.992h-3.413v13.76h3.413v-5.91c.576-.725 1.238-1.194 2.027-1.194.981 0 1.195.469 1.195 1.728v5.376h3.413v-6.55c0-2.773-1.045-3.946-3.243-3.946-1.28 0-2.304.554-3.392 1.77v-5.034zM449.669 49.752V36.738h-3.478v13.014h3.478zM455.371 39.448h-3.413v10.304h3.413v-6.144c.576-.726 1.237-1.174 2.027-1.174.981 0 1.194.47 1.194 1.728v5.59h3.414v-6.55c0-2.773-1.046-3.946-3.243-3.946-1.259 0-2.304.554-3.392 1.536v-1.344zM463.851 36.44c0 1.173.918 1.749 1.92 1.749 1.003 0 1.92-.576 1.92-1.75 0-1.151-.917-1.727-1.92-1.727-1.002 0-1.92.576-1.92 1.728zm3.627 13.312V39.448h-3.413v10.304h3.413zM476.156 47.149c-.576.043-.896.043-1.386.043-1.003 0-1.28-.448-1.28-1.366v-3.584h2.517v-2.794h-2.517v-2.283h-3.414v2.283h-1.45v2.794h1.45v3.734c0 2.816 1.003 3.925 3.414 3.925 1.045 0 2.24-.277 2.986-.704l-.32-2.048zM477.497 36.44c0 1.173.918 1.749 1.92 1.749 1.003 0 1.92-.576 1.92-1.75 0-1.151-.917-1.727-1.92-1.727-1.002 0-1.92.576-1.92 1.728zm3.627 13.312V39.448h-3.413v10.304h3.413zM484.21 42.328c1.472-.32 2.581-.448 3.349-.448 1.216 0 1.536.469 1.536 1.621h-2.048c-2.901 0-4.352 1.003-4.352 3.2 0 2.432 1.216 3.243 3.392 3.243 1.237 0 2.176-.555 3.008-1.408v1.216h3.328V43.5c0-2.987-1.216-4.245-4.224-4.245-1.067 0-2.112.149-4.501.768l.512 2.304zm4.885 2.986v1.302c-.512.533-1.088.896-1.899.896-.853 0-1.386-.47-1.386-1.216 0-.875.597-.982 1.685-.982h1.6zM500.948 47.149c-.576.043-.896.043-1.387.043-1.002 0-1.28-.448-1.28-1.366v-3.584h2.518v-2.794h-2.518v-2.283h-3.413v2.283h-1.451v2.794h1.451v3.734c0 2.816 1.003 3.925 3.413 3.925 1.046 0 2.24-.277 2.987-.704l-.32-2.048zM502.289 36.44c0 1.173.917 1.749 1.92 1.749s1.92-.576 1.92-1.75c0-1.151-.917-1.727-1.92-1.727s-1.92.576-1.92 1.728zm3.627 13.312V39.448h-3.414v10.304h3.414zM514.512 49.752l4.224-10.304h-3.392l-2.154 5.269c-.192.49-.32 1.067-.491 1.6-.149-.533-.277-1.088-.469-1.6l-1.942-5.27h-3.392l4.011 10.305h3.605zM527.617 46.36c-1.28.682-2.261.938-3.648.938-1.152 0-1.835-.554-2.069-1.706h6.656c.064-.534.085-.96.085-1.387-.021-3.264-1.899-4.95-4.8-4.95-3.221 0-5.227 1.835-5.227 5.42 0 3.498 2.048 5.269 5.206 5.269 1.728 0 3.2-.491 4.757-1.664l-.96-1.92zm-5.739-2.795c.192-1.323.832-1.941 1.963-1.941 1.109 0 1.792.597 1.877 1.941h-3.84zM106.647 47.903c0-1.024-.034-2.925-.312-3.42-.116-.2-.415-.315-.828-.349l-.412-.03c-.098-.119-.067-.332.03-.4.631.035 1.24.05 1.886.05.693 0 1.138-.015 1.736-.05.132.084.114.298.033.4l-.397.03c-.412.034-.728.183-.827.399-.228.544-.228 2.442-.228 3.37v1.87c0 1.434-.233 2.955-1.16 3.945-.712.778-1.936 1.208-3.157 1.208-1.14 0-2.279-.218-3.088-.909-.874-.726-1.288-1.932-1.288-3.898v-3.901c0-1.719-.035-2-.994-2.084l-.41-.03c-.099-.069-.067-.35.03-.4.826.035 1.388.05 2.05.05.677 0 1.224-.015 2.03-.05.102.05.134.331.035.4l-.396.03c-.957.084-.992.365-.992 2.084v3.57c0 2.659.825 4.409 3.353 4.409 2.396 0 3.306-1.88 3.306-4.393v-1.901zM128.239 51.853c0 .495 0 2.461.049 2.89-.031.1-.131.183-.313.183-.198-.281-.676-.86-2.114-2.495l-3.833-4.362c-.448-.513-1.571-1.867-1.917-2.232h-.034c-.065.198-.084.581-.084 1.073v3.602c0 .779.019 2.927.3 3.422.098.182.43.28.844.312l.511.052c.099.13.083.329-.036.412a44.63 44.63 0 0 0-1.931-.051c-.694 0-1.14.02-1.718.05-.118-.082-.134-.312-.034-.41l.446-.053c.382-.05.645-.148.728-.33.23-.592.214-2.61.214-3.404v-4.773c0-.464-.016-.81-.362-1.192-.232-.23-.631-.345-1.026-.394l-.278-.034c-.1-.1-.1-.347.03-.414.694.05 1.57.05 1.867.05.267 0 .545-.016.76-.05.331.842 2.283 3.026 2.827 3.635l1.601 1.802c1.141 1.271 1.951 2.198 2.729 2.992h.031c.068-.083.068-.349.068-.695v-3.536c0-.776-.019-2.925-.331-3.42-.098-.15-.364-.25-1.025-.33l-.281-.034c-.115-.1-.1-.365.033-.414.76.034 1.323.05 1.951.05.708 0 1.14-.016 1.7-.05.133.083.133.315.034.414l-.232.034c-.529.08-.86.213-.925.346-.28.596-.249 2.643-.249 3.404v3.95zM140.545 46.267c0-1.753-.033-2.034-1.008-2.114l-.413-.034c-.1-.068-.065-.365.033-.414a44.6 44.6 0 0 0 2.083.05c.66 0 1.221-.015 2.048-.05.099.05.132.346.033.414l-.412.034c-.976.08-1.009.361-1.009 2.114v5.883c0 1.75.033 1.982 1.009 2.096l.412.052c.099.065.066.362-.033.412a51.31 51.31 0 0 0-2.048-.05c-.695 0-1.257.019-2.083.05-.098-.05-.133-.313-.033-.412l.413-.052c.975-.114 1.008-.346 1.008-2.096v-5.883zM153.928 45.507c-.38-.925-.627-1.274-1.339-1.354l-.298-.034c-.115-.1-.099-.331.033-.414.48.034 1.008.05 1.719.05.726 0 1.305-.016 2-.05.114.067.149.315.034.414l-.25.034c-.628.08-.758.18-.776.312.033.167.312 1.06.825 2.315.761 1.917 1.521 3.815 2.349 5.7.511-1.09 1.206-2.79 1.586-3.667a225.82 225.82 0 0 0 1.537-3.702c.132-.346.148-.529.148-.646 0-.114-.167-.247-.745-.312l-.296-.034c-.118-.1-.084-.347.033-.414.461.034 1.092.05 1.716.05.547 0 1.06-.016 1.604-.05.115.067.115.33.035.414l-.495.034c-.399.03-.647.231-.863.578-.46.776-1.106 2.117-1.848 3.8l-.893 2.03c-.661 1.524-1.439 3.438-1.719 4.316a.343.343 0 0 1-.178.049.72.72 0 0 1-.252-.05c-.182-.695-.479-1.502-.76-2.197l-2.907-7.172zM173.819 46.236c0-1.721-.034-1.969-1.008-2.083l-.266-.034c-.098-.068-.065-.365.035-.414.712.034 1.273.05 1.949.05h3.108c1.058 0 2.031 0 2.228-.05.1.28.199 1.471.267 2.2-.068.1-.331.13-.415.031-.246-.776-.396-1.354-1.254-1.57-.347-.083-.876-.099-1.604-.099h-1.191c-.492 0-.492.034-.492.662v3.304c0 .464.049.464.541.464h.963c.691 0 1.204-.034 1.403-.1.2-.067.314-.167.397-.58l.133-.677c.082-.099.359-.099.427.016 0 .398-.068 1.044-.068 1.672 0 .593.068 1.224.068 1.583-.068.117-.345.117-.427.018l-.15-.643c-.066-.297-.18-.544-.511-.628-.232-.067-.631-.083-1.272-.083h-.963c-.492 0-.541.016-.541.448v2.328c0 .875.049 1.436.309 1.716.202.198.547.38 2.003.38 1.273 0 1.751-.065 2.115-.247.298-.164.744-.742 1.172-1.602.117-.083.35-.035.414.118-.114.578-.529 1.847-.745 2.292a221.88 221.88 0 0 0-4.427-.048h-1.488c-.71 0-1.273.019-2.249.048-.099-.048-.131-.31-.031-.41l.544-.052c.944-.08 1.026-.33 1.026-2.062v-5.948zM193.083 48.614c0 .296 0 .479.049.546.049.05.296.081 1.137.081.596 0 1.224-.065 1.703-.43.445-.346.827-.924.827-2.047 0-1.307-.808-2.546-2.647-2.546-1.02 0-1.069.065-1.069.528v3.867zm-1.358-2.362c0-1.57-.049-1.852-.726-1.935l-.528-.065c-.115-.084-.115-.35.017-.415.923-.085 2.065-.132 3.683-.132 1.025 0 2 .083 2.76.497.79.412 1.37 1.156 1.37 2.315 0 1.568-1.237 2.427-2.062 2.758-.084.099 0 .266.08.398 1.32 2.13 2.198 3.453 3.322 4.394.282.247.696.43 1.142.46.082.035.096.167.016.232-.15.049-.415.084-.727.084-1.408 0-2.251-.414-3.42-2.081-.432-.612-1.109-1.753-1.623-2.495-.246-.364-.512-.529-1.17-.529-.746 0-.776.014-.776.365v2.08c0 1.733.03 1.933.992 2.063l.342.052c.1.081.068.362-.03.412a44.193 44.193 0 0 0-1.967-.05c-.695 0-1.291.019-2.064.05-.1-.05-.135-.297-.035-.412l.412-.052c.959-.114.992-.33.992-2.062v-5.932zM211.695 54.926c-1.387 0-2.264-.43-2.579-.612-.199-.364-.412-1.536-.445-2.312.082-.118.329-.149.398-.05.247.844.924 2.461 2.842 2.461 1.388 0 2.066-.906 2.066-1.898 0-.73-.15-1.54-1.356-2.313l-1.568-1.026c-.828-.547-1.786-1.487-1.786-2.841 0-1.57 1.224-2.844 3.37-2.844.512 0 1.107.1 1.539.214.212.067.443.099.575.099.149.398.297 1.323.297 2.018-.065.099-.331.148-.411.05-.214-.795-.66-1.87-2.249-1.87-1.616 0-1.965 1.075-1.965 1.835 0 .961.792 1.652 1.404 2.032l1.322.828c1.043.643 2.066 1.601 2.066 3.172 0 1.817-1.37 3.057-3.52 3.057zM226.447 46.267c0-1.753-.031-2.034-1.008-2.114l-.414-.034c-.1-.068-.065-.365.034-.414.828.035 1.388.05 2.082.05.663 0 1.222-.015 2.051-.05.099.05.132.346.031.414l-.415.034c-.971.08-1.004.361-1.004 2.114v5.883c0 1.75.033 1.982 1.004 2.096l.415.052c.101.065.068.362-.031.412a51.407 51.407 0 0 0-2.051-.05c-.694 0-1.254.019-2.082.05-.099-.05-.134-.313-.034-.412l.414-.052c.977-.114 1.008-.346 1.008-2.096v-5.883zM244.793 52.184c0 1.732.031 1.982.987 2.063l.531.051c.1.066.064.362-.034.413a59.067 59.067 0 0 0-2.164-.05c-.661 0-1.24.018-2.3.05-.098-.05-.129-.332 0-.413l.598-.052c.942-.08 1.025-.33 1.025-2.062v-7.388c0-.513 0-.527-.497-.527h-.91c-.709 0-1.616.032-2.03.412-.396.365-.563.727-.746 1.143-.129.097-.364.014-.429-.117.265-.744.513-1.804.628-2.463.052-.031.265-.05.313 0 .1.529.648.51 1.408.51h6.692c.891 0 1.04-.031 1.287-.46.084-.032.265-.016.297.049-.184.677-.297 2.015-.248 2.513-.064.13-.345.13-.429.031-.049-.412-.167-1.023-.411-1.206-.381-.28-1.008-.412-1.92-.412h-1.172c-.494 0-.476.014-.476.56v7.355zM263.624 52.15c0 1.766.099 2.031.992 2.096l.631.052c.096.1.064.362-.035.412-1.025-.031-1.588-.05-2.249-.05-.696 0-1.287.019-2.164.05-.1-.05-.134-.313-.035-.412l.516-.052c.956-.099.987-.33.987-2.096v-.844c0-.909-.05-1.122-.526-2.047l-1.95-3.802c-.563-1.09-.811-1.174-1.306-1.255l-.462-.083c-.1-.117-.082-.347.033-.414.527.034 1.123.05 1.916.05.761 0 1.355-.017 1.769-.05.148.05.148.315.05.414l-.214.034c-.578.082-.696.164-.696.296 0 .164.43 1.107.514 1.274.609 1.221 1.221 2.526 1.868 3.67a65.06 65.06 0 0 0 1.55-2.795c.464-.86 1.074-1.985 1.074-2.182 0-.1-.298-.214-.692-.263l-.298-.034c-.114-.117-.098-.347.034-.414a24.423 24.423 0 0 0 3.122 0c.134.085.148.315.034.414l-.463.083c-.86.148-1.357 1.19-2.183 2.612l-1.038 1.8c-.73 1.257-.779 1.406-.779 2.677v.859zM28.004 59.023a42.29 42.29 0 0 0 4.967-3.25V39.06l-4.967-3.303v23.264zM28.004 24.189l4.967 3.306v-8.444c-1.653-.077-3.31-.122-4.967-.135v5.273zM42.908 19.929a124.196 124.196 0 0 0-4.969-.53v11.402l4.97 3.307v-14.18zM37.94 42.369v9.088a50.551 50.551 0 0 0 4.969-5.768v-.014l-4.97-3.306z" fill="#22356B"/><path d="M42.908 45.69l.007-.014-.007-.003v.016zM47.87 20.678v16.735l.015.01c2.167-4.489 3.915-9.727 4.899-15.817l-.17-.034c-1.57-.329-3.155-.624-4.744-.894zM32.973 27.498v11.566l4.967 3.305V30.802L32.973 27.5z" fill="#22356B"/><path d="M42.908 34.108v11.566l.007.002a51.299 51.299 0 0 0 4.955-8.23v-.032l-4.962-3.306zM47.87 37.447c.007-.008.01-.018.015-.026l-.015-.007v.033zM17.106 39.817a7.813 7.813 0 0 0 3.742-2.328 15.323 15.323 0 0 0-1.904-.552c-.54 1.2-1.22 2.158-1.838 2.88zM9.224 37.491a7.8 7.8 0 0 0 3.748 2.328 12.083 12.083 0 0 1-1.841-2.885 15.63 15.63 0 0 0-1.907.557zM14.316 25.444a11.07 11.07 0 0 0-1.698 2.485c.531.07 1.098.12 1.698.14v-2.625zM19.445 35.582c.897.211 1.66.463 2.284.709a7.724 7.724 0 0 0 1.074-3.271h-2.897a11.205 11.205 0 0 1-.46 2.562zM12.971 24.789a7.812 7.812 0 0 0-3.748 2.329c.545.196 1.175.39 1.907.553.541-1.2 1.223-2.16 1.841-2.882zM20.847 27.118a7.795 7.795 0 0 0-3.741-2.327 12.07 12.07 0 0 1 1.84 2.88c.73-.162 1.362-.359 1.901-.553zM19.905 31.587h2.897a7.703 7.703 0 0 0-1.074-3.27 16.55 16.55 0 0 1-2.283.707c.237.78.401 1.636.46 2.563zM15.75 39.17a10.956 10.956 0 0 0 1.71-2.49 18.307 18.307 0 0 0-1.71-.145v2.636zM14.316 33.02h-2.71c.063.83.225 1.593.453 2.289a19.597 19.597 0 0 1 2.257-.206V33.02zM15.75 35.103a19.56 19.56 0 0 1 2.268.206c.227-.695.39-1.457.452-2.288h-2.72v2.082zM17.465 27.929a10.811 10.811 0 0 0-1.715-2.5v2.64c.607-.02 1.18-.07 1.715-.14zM18.47 31.587a9.647 9.647 0 0 0-.45-2.29c-.697.106-1.455.18-2.27.209v2.081h2.72zM12.617 36.679a11.278 11.278 0 0 0 1.699 2.484v-2.627c-.602.026-1.167.072-1.699.143zM10.63 29.024a16.67 16.67 0 0 1-2.289-.707 7.793 7.793 0 0 0-1.072 3.27h2.901c.06-.927.223-1.783.46-2.563zM14.316 29.505a19.564 19.564 0 0 1-2.257-.207 9.622 9.622 0 0 0-.453 2.29h2.71v-2.083zM10.17 33.02h-2.9a7.774 7.774 0 0 0 1.071 3.27c.627-.245 1.39-.497 2.29-.71a11.172 11.172 0 0 1-.46-2.56z" fill="#22356B"/><path d="M15.034 23.068c5.094 0 9.237 4.142 9.237 9.236 0 5.088-4.143 9.236-9.237 9.236-5.092 0-9.235-4.148-9.235-9.236 0-5.094 4.143-9.236 9.235-9.236zM.884 21.615c3.646 22.537 17.754 33.534 24.78 37.407V18.916c-8.305.078-16.58.967-24.609 2.662l-.172.037z" fill="#22356B"/><path d="M46.795 15.917c-6.46-1.226-13.881-1.602-19.959-1.602h-.005c-6.078 0-13.5.376-19.957 1.602-.244.05-.46-.173-.326-.432l4.25-9.381c.042-.087 2.787-1.446 2.787-1.446 3.49-.733 9.234-.41 13.241 1.064h.015c4.008-1.475 9.751-1.797 13.24-1.064 0 0 2.744 1.36 2.789 1.446l4.246 9.381c.137.259-.077.482-.321.432zm5.802-11.53l-.018-.01a123.271 123.271 0 0 0-25.746-2.714c-8.842 0-17.463.945-25.776 2.723l-.036.01A1.348 1.348 0 0 0 0 5.703l.003 4.659c0 3.06.185 5.947.52 8.686a127.377 127.377 0 0 1 26.334-2.74c8.84 0 17.68.913 26.291 2.732.33-2.733.517-5.622.517-8.678l.002-4.659c0-.65-.459-1.192-1.07-1.318z" fill="#22356B"/><path d="M38.976 6.267l1.787 4.784c-4.163-.571-7.612-.312-12.705 1.356v.448c4.812-.18 10.898-.45 15.818.608l-2.682-6.167-2.218-1.029zM12.847 11.051l1.787-4.784-2.217 1.03-2.68 6.168c4.916-1.06 11.003-.79 15.813-.609v-.448c-5.09-1.669-8.541-1.928-12.703-1.357zM69.531 14.097c0-4.212-.377-4.666-2.617-4.857l-.946-.074c-.229-.153-.153-.835.075-.949 2.2.075 3.488.114 5.082.114 1.518 0 2.807-.04 4.323-.114.229.114.306.796.078.949l-.57.074c-2.237.305-2.313.833-2.313 4.857v14.074c0 2.995-.153 5.612-.872 7.355-1.253 3.038-3.945 5.465-7.475 5.465-.453 0-1.629-.039-1.629-.798 0-.645.567-1.746 1.364-1.746.456 0 .912.074 1.405.229.532.151 1.062.266 1.593.266.797 0 1.253-.456 1.518-.987.872-1.784.984-7.472.984-9.522V14.097zM94.741 23.702c0-5.279-2.336-10.977-8.448-10.977-3.328 0-7.646 2.274-7.646 9.282 0 4.733 2.302 10.88 8.608 10.88 3.84 0 7.486-2.88 7.486-9.185zm-19.296-.672c0-6.399 4.802-11.297 11.392-11.297 7.392 0 11.104 5.345 11.104 10.976 0 6.465-4.926 11.168-11.104 11.168-7.104 0-11.392-5.087-11.392-10.847zM105.211 23.03c-1.535 0-1.6.065-1.6 1.026v4.51c0 3.36.16 3.808 1.95 4l.93.097c.192.127.128.703-.064.799a101.731 101.731 0 0 0-4.066-.096c-1.374 0-2.464.065-3.712.096-.19-.096-.254-.61-.062-.799l.544-.098c1.79-.32 1.856-.639 1.856-4v-11.52c0-3.36-.224-3.902-1.888-4.03l-.832-.065c-.194-.128-.128-.704.062-.8 1.568.03 2.658.096 4.032.096 1.25 0 2.338-.03 3.712-.096.194.096.259.672.064.8l-.608.064c-1.853.191-1.918.672-1.918 4.032v3.68c0 .992.065 1.025 1.6 1.025h9.152c1.536 0 1.598-.033 1.598-1.024v-3.681c0-3.36-.062-3.84-1.95-4.032l-.608-.064c-.192-.128-.128-.704.064-.8 1.472.065 2.558.096 3.87.096 1.25 0 2.338-.03 3.778-.096.19.096.256.672.064.8l-.672.064c-1.856.191-1.92.672-1.92 4.032v11.52c0 3.36.064 3.775 1.92 4l.768.097c.19.127.128.703-.066.799a85.974 85.974 0 0 0-3.872-.096c-1.312 0-2.462.03-3.87.096-.192-.096-.256-.61-.064-.799l.608-.098c1.95-.32 1.95-.639 1.95-4v-4.509c0-.961-.062-1.026-1.598-1.026h-9.152zM143.132 27.925c0 .962 0 4.768.095 5.6-.062.193-.255.352-.606.352-.385-.542-1.313-1.662-4.096-4.832l-7.424-8.448c-.865-.991-3.041-3.616-3.712-4.317h-.064c-.129.383-.16 1.117-.16 2.078v6.977c0 1.502.031 5.664.576 6.621.194.356.832.546 1.632.61l.99.097c.193.254.162.64-.062.799a81.18 81.18 0 0 0-3.745-.097c-1.343 0-2.208.032-3.329.096-.223-.159-.255-.609-.062-.798l.863-.098c.737-.096 1.249-.287 1.409-.639.447-1.151.416-5.055.416-6.591v-9.248c0-.897-.03-1.571-.704-2.304-.449-.448-1.214-.674-1.984-.77l-.545-.062c-.191-.192-.191-.67.065-.802 1.343.097 3.039.097 3.616.097.511 0 1.056-.03 1.471-.097.641 1.634 4.417 5.858 5.473 7.042l3.103 3.487c2.208 2.464 3.776 4.255 5.281 5.792h.063c.129-.159.129-.672.129-1.345v-6.847c0-1.504-.033-5.663-.64-6.625-.192-.287-.706-.48-1.985-.64l-.543-.062c-.224-.192-.193-.705.063-.802a80.42 80.42 0 0 0 3.777.097 48.8 48.8 0 0 0 3.295-.097c.256.162.256.61.065.802l-.448.062c-1.024.16-1.665.418-1.794.672-.542 1.152-.479 5.12-.479 6.593v7.648zM151.589 33.877c-2.688 0-4.382-.831-4.992-1.184-.381-.704-.798-2.976-.865-4.478.163-.227.641-.29.769-.096.48 1.63 1.791 4.768 5.504 4.768 2.69 0 4.003-1.762 4.003-3.68 0-1.41-.289-2.976-2.627-4.482l-3.04-1.985c-1.597-1.055-3.453-2.88-3.453-5.503 0-3.04 2.365-5.502 6.527-5.502.992 0 2.144.192 2.976.415.414.13.862.193 1.118.193.288.766.576 2.56.576 3.902-.126.194-.64.288-.8.098-.416-1.537-1.277-3.617-4.352-3.617-3.134 0-3.808 2.08-3.808 3.554 0 1.853 1.539 3.198 2.722 3.935l2.56 1.599c2.016 1.247 4 3.104 4 6.143 0 3.52-2.656 5.92-6.818 5.92zM177.399 21.116c-1.82 0-1.896.073-1.896 1.21v5.35c0 3.98.189 4.513 2.312 4.742l1.102.115c.226.15.152.833-.077.944-2.048-.074-3.337-.11-4.816-.11-1.632 0-2.923.074-4.401.11-.228-.11-.304-.72-.076-.944l.645-.115c2.121-.382 2.2-.761 2.2-4.742V14.02c0-3.984-.265-4.628-2.237-4.779l-.987-.076c-.228-.15-.152-.835.076-.948 1.857.037 3.148.113 4.78.113 1.479 0 2.768-.037 4.399-.113.228.113.304.798.074.948l-.72.076c-2.198.23-2.274.795-2.274 4.779v4.362c0 1.176.076 1.212 1.896 1.212h10.849c1.82 0 1.895-.036 1.895-1.212V14.02c0-3.984-.075-4.55-2.314-4.779l-.721-.076c-.227-.15-.151-.835.077-.948 1.742.076 3.035.113 4.59.113 1.478 0 2.769-.037 4.476-.113.226.113.304.798.074.948l-.796.076c-2.198.23-2.276.795-2.276 4.779v13.655c0 3.982.078 4.477 2.276 4.743l.911.115c.228.15.152.833-.077.944-1.819-.074-3.11-.11-4.588-.11-1.555 0-2.92.036-4.59.11-.228-.11-.304-.72-.077-.944l.721-.115c2.314-.382 2.314-.761 2.314-4.742v-5.35c0-1.137-.075-1.21-1.895-1.21h-10.849z" fill="#22356B"/><path d="M215.496 23.702c0-5.279-2.335-10.977-8.448-10.977-3.327 0-7.647 2.274-7.647 9.282 0 4.733 2.304 10.88 8.608 10.88 3.842 0 7.487-2.88 7.487-9.185zM196.2 23.03c0-6.399 4.803-11.297 11.392-11.297 7.393 0 11.104 5.345 11.104 10.976 0 6.465-4.927 11.168-11.104 11.168-7.103 0-11.392-5.087-11.392-10.847zM224.488 28.566c0 3.36.064 3.775 2.112 4l.865.096c.191.158.128.704-.065.8-1.823-.066-2.879-.096-4.159-.096-1.345 0-2.496.03-3.904.096-.193-.096-.256-.609-.064-.8l.672-.095c1.856-.255 1.919-.641 1.919-4V16.758c0-2.721-.063-3.265-1.503-3.425l-1.153-.13c-.224-.19-.192-.67.065-.798 1.696-.225 3.68-.258 6.335-.258 2.656 0 4.641.353 6.144 1.282 1.472.928 2.56 2.592 2.56 4.799 0 2.944-1.823 4.418-3.2 5.09-1.408.671-3.103.958-4.416.958-.224-.094-.224-.575-.032-.637 3.456-.642 4.704-2.595 4.704-5.378 0-3.105-1.824-5.119-5.151-5.119-1.696 0-1.729.126-1.729 1.152v14.271zM237.804 17.045c0-3.36-.065-3.872-1.921-4.03l-.8-.064c-.192-.13-.127-.706.062-.802 1.568.066 2.594.096 4.032.096 1.248 0 2.338-.03 3.714-.095.192.095.256.671.062.801l-.606.063c-1.858.191-1.922.671-1.922 4.031v3.683c0 .606.064 1.213.419 1.213.287 0 .671-.19.895-.351.448-.383 1.28-1.216 1.632-1.537l3.454-3.423c.608-.577 2.178-2.209 2.496-2.655.162-.226.226-.385.226-.514 0-.127-.128-.223-.544-.318l-.864-.192c-.224-.226-.192-.64.062-.802 1.12.066 2.4.096 3.52.096 1.122 0 2.208-.03 3.167-.095.227.16.257.609.067.801-.832.063-2.08.383-2.976.895-.895.511-2.69 2.015-4.482 3.713l-2.878 2.718c-.448.451-.738.738-.738.992 0 .227.194.482.608.993 3.04 3.485 5.504 6.367 8.002 8.99.768.769 1.35 1.187 2.437 1.315l.617.096c.226.157.16.702-.065.8-.832-.066-1.709-.099-3.213-.099-1.311 0-2.435.033-3.906.099-.222-.066-.318-.611-.126-.8l.736-.132c.448-.062.768-.158.768-.316 0-.194-.224-.448-.45-.739-.608-.767-1.438-1.63-2.654-3.007l-2.56-2.88c-1.824-2.046-2.336-2.686-3.104-2.686-.482 0-.546.416-.546 1.536v4.128c0 3.357.064 3.806 1.858 4l.864.096c.19.128.128.702-.064.8a88.71 88.71 0 0 0-3.906-.099c-1.312 0-2.4.033-3.71.099-.192-.099-.258-.576-.064-.8l.64-.096c1.696-.257 1.761-.643 1.761-4V17.045zM259.767 17.11c0-3.392-.064-3.937-1.954-4.095l-.797-.065c-.193-.129-.129-.704.063-.802 1.6.066 2.688.098 4.032.098 1.28 0 2.368-.032 3.968-.098.192.098.256.673.064.802l-.8.065c-1.888.158-1.952.703-1.952 4.095v11.391c0 3.394.064 3.842 1.952 4.066l.8.095c.192.129.128.703-.064.8a91.356 91.356 0 0 0-3.968-.098c-1.344 0-2.31.033-3.91.099-.192-.099-.256-.61-.062-.801l.674-.095c1.89-.224 1.954-.672 1.954-4.066v-11.39zM287.447 27.925c0 .962 0 4.768.097 5.6-.064.193-.256.352-.608.352-.384-.542-1.312-1.662-4.096-4.832l-7.424-8.448c-.864-.991-3.041-3.616-3.712-4.317h-.063c-.129.383-.162 1.117-.162 2.078v6.977c0 1.502.033 5.664.577 6.621.193.356.832.546 1.632.61l.992.097c.191.254.159.64-.064.799a81.173 81.173 0 0 0-3.744-.097c-1.343 0-2.208.032-3.327.096-.225-.159-.257-.609-.065-.798l.865-.098c.735-.096 1.247-.287 1.407-.639.448-1.151.416-5.055.416-6.591v-9.248c0-.897-.032-1.571-.704-2.304-.448-.448-1.216-.674-1.984-.77l-.544-.062c-.192-.192-.192-.67.065-.802 1.344.097 3.039.097 3.615.097.512 0 1.056-.03 1.472-.097.641 1.634 4.416 5.858 5.471 7.042l3.105 3.487c2.208 2.464 3.775 4.255 5.28 5.792h.064c.128-.159.128-.672.128-1.345v-6.847c0-1.504-.032-5.663-.64-6.625-.192-.287-.703-.48-1.983-.64l-.544-.062c-.225-.192-.193-.705.062-.802 1.473.066 2.56.097 3.777.097 1.377 0 2.208-.03 3.295-.097.257.162.257.61.065.802l-.448.062c-1.025.16-1.664.418-1.793.672-.544 1.152-.48 5.12-.48 6.593v7.648zM295.852 33.877c-2.689 0-4.384-.831-4.993-1.184-.384-.704-.8-2.976-.866-4.478.163-.227.643-.29.768-.096.482 1.63 1.794 4.768 5.507 4.768 2.687 0 4-1.762 4-3.68 0-1.41-.291-2.976-2.627-4.482l-3.037-1.985c-1.601-1.055-3.459-2.88-3.459-5.503 0-3.04 2.37-5.502 6.531-5.502.991 0 2.141.192 2.975.415.417.13.864.193 1.118.193.29.766.578 2.56.578 3.902-.13.194-.64.288-.8.098-.416-1.537-1.279-3.617-4.352-3.617-3.136 0-3.808 2.08-3.808 3.554 0 1.853 1.536 3.198 2.718 3.935l2.562 1.599c2.016 1.247 4 3.104 4 6.143 0 3.52-2.656 5.92-6.815 5.92z" fill="#22356B"/></svg>
